{
	"asset":{
		"generator":"Khronos glTF Blender I/O v3.5.30",
		"version":"2.0"
	},
	"scene":0,
	"scenes":[
		{
			"name":"Scene",
			"nodes":[
				11
			]
		}
	],
	"nodes":[
		{
			"mesh":0,
			"name":"330ml_can_body_0",
			"rotation":[
				0.00038109306478872895,
				-0.007476447615772486,
				0.7422935962677002,
				0.6700330376625061
			],
			"translation":[
				0,
				0,
				-0.06264608353376389
			]
		},
		{
			"mesh":1,
			"name":"330ml_can_body_0.001",
			"rotation":[
				0.014298827387392521,
				-0.006958571262657642,
				0.7432351112365723,
				0.6688413023948669
			],
			"translation":[
				-0.0014920940157026052,
				-0.0017723690252751112,
				0.06445261090993881
			]
		},
		{
			"mesh":2,
			"name":"330ml_can_body_0.002",
			"rotation":[
				0.00038109306478872895,
				-0.007476447615772486,
				0.7422935962677002,
				0.6700330376625061
			],
			"translation":[
				0,
				0,
				-0.06264608353376389
			]
		},
		{
			"mesh":3,
			"name":"330ml_can_body_0.003",
			"rotation":[
				0.00038109306478872895,
				-0.007476447615772486,
				0.7422935962677002,
				0.6700330376625061
			],
			"translation":[
				0,
				0,
				-0.06264608353376389
			]
		},
		{
			"mesh":4,
			"name":"330ml_can_body_0.004",
			"rotation":[
				0.00038109306478872895,
				-0.007476447615772486,
				0.7422935962677002,
				0.6700330376625061
			],
			"translation":[
				0,
				0,
				-0.06264608353376389
			]
		},
		{
			"mesh":5,
			"name":"330ml_can_body_0.005",
			"rotation":[
				0.004093465860933065,
				-0.007391607388854027,
				0.7381057739257812,
				0.6746321320533752
			],
			"translation":[
				-0.0014273921260610223,
				-0.0022876455914229155,
				0.06401816755533218
			]
		},
		{
			"mesh":6,
			"name":"330ml_can_body_0.006",
			"rotation":[
				0.00038109306478872895,
				-0.007476447615772486,
				0.7422935962677002,
				0.6700330376625061
			],
			"translation":[
				0,
				0,
				-0.06264608353376389
			]
		},
		{
			"mesh":7,
			"name":"330ml_can_body_0.007",
			"rotation":[
				0.00038109306478872895,
				-0.007476447615772486,
				0.7422935962677002,
				0.6700330376625061
			],
			"translation":[
				0,
				0,
				-0.06264608353376389
			]
		},
		{
			"children":[
				0,
				1,
				2,
				3,
				4,
				5,
				6,
				7
			],
			"name":"330ml",
			"rotation":[
				-0.6532816886901855,
				-0.27059808373451233,
				-0.2705982029438019,
				0.6532813310623169
			],
			"scale":[
				93.60700988769531,
				94.14876556396484,
				87.79479217529297
			],
			"translation":[
				-0.0003929286904167384,
				5.5,
				-7.530517578125
			]
		},
		{
			"children":[
				8
			],
			"name":"RootNode"
		},
		{
			"children":[
				9
			],
			"name":"aee9ed8713fc41fab45080eaa9fc4ef3.fbx",
			"rotation":[
				0.70710688829422,
				0,
				0,
				0.7071066498756409
			],
			"translation":[
				0.018006563186645508,
				-7.538519859313965,
				0
			]
		},
		{
			"children":[
				10
			],
			"name":"Sketchfab_model",
			"rotation":[
				-0.677682638168335,
				0.2018570601940155,
				0.2018570899963379,
				0.6776825785636902
			]
		}
	],
	"animations":[
		{
			"channels":[
				{
					"sampler":0,
					"target":{
						"node":1,
						"path":"translation"
					}
				},
				{
					"sampler":1,
					"target":{
						"node":1,
						"path":"rotation"
					}
				},
				{
					"sampler":2,
					"target":{
						"node":1,
						"path":"scale"
					}
				}
			],
			"name":"330ml_can_body_0.001Action.003",
			"samplers":[
				{
					"input":32,
					"interpolation":"STEP",
					"output":33
				},
				{
					"input":32,
					"interpolation":"LINEAR",
					"output":34
				},
				{
					"input":32,
					"interpolation":"STEP",
					"output":35
				}
			]
		},
		{
			"channels":[
				{
					"sampler":0,
					"target":{
						"node":1,
						"path":"translation"
					}
				},
				{
					"sampler":1,
					"target":{
						"node":1,
						"path":"rotation"
					}
				},
				{
					"sampler":2,
					"target":{
						"node":1,
						"path":"scale"
					}
				}
			],
			"name":"oppercule",
			"samplers":[
				{
					"input":36,
					"interpolation":"STEP",
					"output":37
				},
				{
					"input":36,
					"interpolation":"LINEAR",
					"output":38
				},
				{
					"input":36,
					"interpolation":"STEP",
					"output":39
				}
			]
		},
		{
			"channels":[
				{
					"sampler":0,
					"target":{
						"node":5,
						"path":"translation"
					}
				},
				{
					"sampler":1,
					"target":{
						"node":5,
						"path":"rotation"
					}
				},
				{
					"sampler":2,
					"target":{
						"node":5,
						"path":"scale"
					}
				}
			],
			"name":"330ml_can_body_0.005Action.002",
			"samplers":[
				{
					"input":32,
					"interpolation":"STEP",
					"output":40
				},
				{
					"input":32,
					"interpolation":"LINEAR",
					"output":41
				},
				{
					"input":32,
					"interpolation":"STEP",
					"output":42
				}
			]
		},
		{
			"channels":[
				{
					"sampler":0,
					"target":{
						"node":5,
						"path":"translation"
					}
				},
				{
					"sampler":1,
					"target":{
						"node":5,
						"path":"rotation"
					}
				},
				{
					"sampler":2,
					"target":{
						"node":5,
						"path":"scale"
					}
				}
			],
			"name":"ouverture",
			"samplers":[
				{
					"input":43,
					"interpolation":"STEP",
					"output":44
				},
				{
					"input":43,
					"interpolation":"LINEAR",
					"output":45
				},
				{
					"input":43,
					"interpolation":"LINEAR",
					"output":46
				}
			]
		}
	],
	"meshes":[
		{
			"name":"330ml_can_body_0",
			"primitives":[
				{
					"attributes":{
						"POSITION":0,
						"TEXCOORD_0":1,
						"NORMAL":2
					},
					"indices":3
				}
			]
		},
		{
			"name":"330ml_can_body_0.001",
			"primitives":[
				{
					"attributes":{
						"POSITION":4,
						"TEXCOORD_0":5,
						"NORMAL":6
					},
					"indices":7
				}
			]
		},
		{
			"name":"330ml_can_body_0.002",
			"primitives":[
				{
					"attributes":{
						"POSITION":8,
						"TEXCOORD_0":9,
						"NORMAL":10
					},
					"indices":11
				}
			]
		},
		{
			"name":"330ml_can_body_0.003",
			"primitives":[
				{
					"attributes":{
						"POSITION":12,
						"TEXCOORD_0":13,
						"NORMAL":14
					},
					"indices":15
				}
			]
		},
		{
			"name":"330ml_can_body_0.004",
			"primitives":[
				{
					"attributes":{
						"POSITION":16,
						"TEXCOORD_0":17,
						"NORMAL":18
					},
					"indices":19
				}
			]
		},
		{
			"name":"330ml_can_body_0.005",
			"primitives":[
				{
					"attributes":{
						"POSITION":20,
						"TEXCOORD_0":21,
						"NORMAL":22
					},
					"indices":23
				}
			]
		},
		{
			"name":"330ml_can_body_0.006",
			"primitives":[
				{
					"attributes":{
						"POSITION":24,
						"TEXCOORD_0":25,
						"NORMAL":26
					},
					"indices":27
				}
			]
		},
		{
			"name":"330ml_can_body_0.007",
			"primitives":[
				{
					"attributes":{
						"POSITION":28,
						"TEXCOORD_0":29,
						"NORMAL":30
					},
					"indices":31
				}
			]
		}
	],
	"accessors":[
		{
			"bufferView":0,
			"componentType":5126,
			"count":3556,
			"max":[
				0.035493671894073486,
				0.02023530751466751,
				0.12792082130908966
			],
			"min":[
				-0.025818346068263054,
				-0.02761737070977688,
				0.00015112358960323036
			],
			"type":"VEC3"
		},
		{
			"bufferView":1,
			"componentType":5126,
			"count":3556,
			"type":"VEC2"
		},
		{
			"bufferView":2,
			"componentType":5126,
			"count":3556,
			"type":"VEC3"
		},
		{
			"bufferView":3,
			"componentType":5123,
			"count":14352,
			"type":"SCALAR"
		},
		{
			"bufferView":4,
			"componentType":5126,
			"count":1663,
			"max":[
				0.01822355017066002,
				0.011322795413434505,
				-0.0016678571701049805
			],
			"min":[
				0.0026669930666685104,
				-0.012252641841769218,
				-0.0023780912160873413
			],
			"type":"VEC3"
		},
		{
			"bufferView":5,
			"componentType":5126,
			"count":1663,
			"type":"VEC2"
		},
		{
			"bufferView":6,
			"componentType":5126,
			"count":1663,
			"type":"VEC3"
		},
		{
			"bufferView":7,
			"componentType":5123,
			"count":6840,
			"type":"SCALAR"
		},
		{
			"bufferView":8,
			"componentType":5126,
			"count":33,
			"max":[
				0.007428287994116545,
				0.009188259951770306,
				0.12553776800632477
			],
			"min":[
				-0.03549006208777428,
				-0.006071781273931265,
				0.041297100484371185
			],
			"type":"VEC3"
		},
		{
			"bufferView":9,
			"componentType":5126,
			"count":33,
			"type":"VEC2"
		},
		{
			"bufferView":10,
			"componentType":5126,
			"count":33,
			"type":"VEC3"
		},
		{
			"bufferView":11,
			"componentType":5123,
			"count":51,
			"type":"SCALAR"
		},
		{
			"bufferView":12,
			"componentType":5126,
			"count":5968,
			"max":[
				0.0355411171913147,
				0.035541124641895294,
				0.1276867389678955
			],
			"min":[
				-0.0355411134660244,
				-0.0355411097407341,
				2.7082856831839308e-05
			],
			"type":"VEC3"
		},
		{
			"bufferView":13,
			"componentType":5126,
			"count":5968,
			"type":"VEC2"
		},
		{
			"bufferView":14,
			"componentType":5126,
			"count":5968,
			"type":"VEC3"
		},
		{
			"bufferView":15,
			"componentType":5123,
			"count":29244,
			"type":"SCALAR"
		},
		{
			"bufferView":16,
			"componentType":5126,
			"count":7908,
			"max":[
				0.02886292152106762,
				0.028862930834293365,
				0.130667582154274
			],
			"min":[
				-0.02886292152106762,
				-0.02886291593313217,
				0.008396760560572147
			],
			"type":"VEC3"
		},
		{
			"bufferView":17,
			"componentType":5126,
			"count":7908,
			"type":"VEC2"
		},
		{
			"bufferView":18,
			"componentType":5126,
			"count":7908,
			"type":"VEC3"
		},
		{
			"bufferView":19,
			"componentType":5123,
			"count":36723,
			"type":"SCALAR"
		},
		{
			"bufferView":20,
			"componentType":5126,
			"count":11772,
			"max":[
				0.009111568331718445,
				0.009073814377188683,
				5.319714546203613e-06
			],
			"min":[
				-0.02183663845062256,
				-0.02275298535823822,
				-0.12696944177150726
			],
			"type":"VEC3"
		},
		{
			"bufferView":21,
			"componentType":5126,
			"count":11772,
			"type":"VEC2"
		},
		{
			"bufferView":22,
			"componentType":5126,
			"count":11772,
			"type":"VEC3"
		},
		{
			"bufferView":23,
			"componentType":5123,
			"count":50733,
			"type":"SCALAR"
		},
		{
			"bufferView":24,
			"componentType":5126,
			"count":4,
			"max":[
				0.03516099974513054,
				-0.0046273693442344666,
				0.08045464754104614
			],
			"min":[
				0.034249186515808105,
				-0.009177968837320805,
				0.07719150185585022
			],
			"type":"VEC3"
		},
		{
			"bufferView":25,
			"componentType":5126,
			"count":4,
			"type":"VEC2"
		},
		{
			"bufferView":26,
			"componentType":5126,
			"count":4,
			"type":"VEC3"
		},
		{
			"bufferView":27,
			"componentType":5123,
			"count":6,
			"type":"SCALAR"
		},
		{
			"bufferView":28,
			"componentType":5126,
			"count":6,
			"max":[
				-0.03267515078186989,
				-0.009153012186288834,
				0.11380931735038757
			],
			"min":[
				-0.03417498245835304,
				-0.013541873544454575,
				0.11360055953264236
			],
			"type":"VEC3"
		},
		{
			"bufferView":29,
			"componentType":5126,
			"count":6,
			"type":"VEC2"
		},
		{
			"bufferView":30,
			"componentType":5126,
			"count":6,
			"type":"VEC3"
		},
		{
			"bufferView":31,
			"componentType":5123,
			"count":6,
			"type":"SCALAR"
		},
		{
			"bufferView":32,
			"componentType":5126,
			"count":11,
			"max":[
				2.0833333333333335
			],
			"min":[
				1.6666666666666667
			],
			"type":"SCALAR"
		},
		{
			"bufferView":33,
			"componentType":5126,
			"count":11,
			"type":"VEC3"
		},
		{
			"bufferView":34,
			"componentType":5126,
			"count":11,
			"type":"VEC4"
		},
		{
			"bufferView":35,
			"componentType":5126,
			"count":11,
			"type":"VEC3"
		},
		{
			"bufferView":36,
			"componentType":5126,
			"count":20,
			"max":[
				0.8333333333333334
			],
			"min":[
				0.041666666666666664
			],
			"type":"SCALAR"
		},
		{
			"bufferView":37,
			"componentType":5126,
			"count":20,
			"type":"VEC3"
		},
		{
			"bufferView":38,
			"componentType":5126,
			"count":20,
			"type":"VEC4"
		},
		{
			"bufferView":39,
			"componentType":5126,
			"count":20,
			"type":"VEC3"
		},
		{
			"bufferView":40,
			"componentType":5126,
			"count":11,
			"type":"VEC3"
		},
		{
			"bufferView":41,
			"componentType":5126,
			"count":11,
			"type":"VEC4"
		},
		{
			"bufferView":42,
			"componentType":5126,
			"count":11,
			"type":"VEC3"
		},
		{
			"bufferView":43,
			"componentType":5126,
			"count":21,
			"max":[
				0.8333333333333334
			],
			"min":[
				0
			],
			"type":"SCALAR"
		},
		{
			"bufferView":44,
			"componentType":5126,
			"count":21,
			"type":"VEC3"
		},
		{
			"bufferView":45,
			"componentType":5126,
			"count":21,
			"type":"VEC4"
		},
		{
			"bufferView":46,
			"componentType":5126,
			"count":21,
			"type":"VEC3"
		}
	],
	"bufferViews":[
		{
			"buffer":0,
			"byteLength":42672,
			"byteOffset":0,
			"target":34962
		},
		{
			"buffer":0,
			"byteLength":28448,
			"byteOffset":42672,
			"target":34962
		},
		{
			"buffer":0,
			"byteLength":42672,
			"byteOffset":71120,
			"target":34962
		},
		{
			"buffer":0,
			"byteLength":28704,
			"byteOffset":113792,
			"target":34963
		},
		{
			"buffer":0,
			"byteLength":19956,
			"byteOffset":142496,
			"target":34962
		},
		{
			"buffer":0,
			"byteLength":13304,
			"byteOffset":162452,
			"target":34962
		},
		{
			"buffer":0,
			"byteLength":19956,
			"byteOffset":175756,
			"target":34962
		},
		{
			"buffer":0,
			"byteLength":13680,
			"byteOffset":195712,
			"target":34963
		},
		{
			"buffer":0,
			"byteLength":396,
			"byteOffset":209392,
			"target":34962
		},
		{
			"buffer":0,
			"byteLength":264,
			"byteOffset":209788,
			"target":34962
		},
		{
			"buffer":0,
			"byteLength":396,
			"byteOffset":210052,
			"target":34962
		},
		{
			"buffer":0,
			"byteLength":102,
			"byteOffset":210448,
			"target":34963
		},
		{
			"buffer":0,
			"byteLength":71616,
			"byteOffset":210552,
			"target":34962
		},
		{
			"buffer":0,
			"byteLength":47744,
			"byteOffset":282168,
			"target":34962
		},
		{
			"buffer":0,
			"byteLength":71616,
			"byteOffset":329912,
			"target":34962
		},
		{
			"buffer":0,
			"byteLength":58488,
			"byteOffset":401528,
			"target":34963
		},
		{
			"buffer":0,
			"byteLength":94896,
			"byteOffset":460016,
			"target":34962
		},
		{
			"buffer":0,
			"byteLength":63264,
			"byteOffset":554912,
			"target":34962
		},
		{
			"buffer":0,
			"byteLength":94896,
			"byteOffset":618176,
			"target":34962
		},
		{
			"buffer":0,
			"byteLength":73446,
			"byteOffset":713072,
			"target":34963
		},
		{
			"buffer":0,
			"byteLength":141264,
			"byteOffset":786520,
			"target":34962
		},
		{
			"buffer":0,
			"byteLength":94176,
			"byteOffset":927784,
			"target":34962
		},
		{
			"buffer":0,
			"byteLength":141264,
			"byteOffset":1021960,
			"target":34962
		},
		{
			"buffer":0,
			"byteLength":101466,
			"byteOffset":1163224,
			"target":34963
		},
		{
			"buffer":0,
			"byteLength":48,
			"byteOffset":1264692,
			"target":34962
		},
		{
			"buffer":0,
			"byteLength":32,
			"byteOffset":1264740,
			"target":34962
		},
		{
			"buffer":0,
			"byteLength":48,
			"byteOffset":1264772,
			"target":34962
		},
		{
			"buffer":0,
			"byteLength":12,
			"byteOffset":1264820,
			"target":34963
		},
		{
			"buffer":0,
			"byteLength":72,
			"byteOffset":1264832,
			"target":34962
		},
		{
			"buffer":0,
			"byteLength":48,
			"byteOffset":1264904,
			"target":34962
		},
		{
			"buffer":0,
			"byteLength":72,
			"byteOffset":1264952,
			"target":34962
		},
		{
			"buffer":0,
			"byteLength":12,
			"byteOffset":1265024,
			"target":34963
		},
		{
			"buffer":0,
			"byteLength":44,
			"byteOffset":1265036
		},
		{
			"buffer":0,
			"byteLength":132,
			"byteOffset":1265080
		},
		{
			"buffer":0,
			"byteLength":176,
			"byteOffset":1265212
		},
		{
			"buffer":0,
			"byteLength":132,
			"byteOffset":1265388
		},
		{
			"buffer":0,
			"byteLength":80,
			"byteOffset":1265520
		},
		{
			"buffer":0,
			"byteLength":240,
			"byteOffset":1265600
		},
		{
			"buffer":0,
			"byteLength":320,
			"byteOffset":1265840
		},
		{
			"buffer":0,
			"byteLength":240,
			"byteOffset":1266160
		},
		{
			"buffer":0,
			"byteLength":132,
			"byteOffset":1266400
		},
		{
			"buffer":0,
			"byteLength":176,
			"byteOffset":1266532
		},
		{
			"buffer":0,
			"byteLength":132,
			"byteOffset":1266708
		},
		{
			"buffer":0,
			"byteLength":84,
			"byteOffset":1266840
		},
		{
			"buffer":0,
			"byteLength":252,
			"byteOffset":1266924
		},
		{
			"buffer":0,
			"byteLength":336,
			"byteOffset":1267176
		},
		{
			"buffer":0,
			"byteLength":252,
			"byteOffset":1267512
		}
	],
	"buffers":[
		{
			"byteLength":1267764,
			"uri":"can.bin"
		}
	]
}
