<svg width="62" height="62" viewBox="0 0 62 62" fill="none" xmlns="http://www.w3.org/2000/svg">
<circle cx="31" cy="31" r="29" transform="rotate(-180 31 31)" stroke="url(#paint0_linear_751_121)" stroke-width="4"/>
<path d="M41.0607 31.0607C41.6464 30.4749 41.6464 29.5251 41.0607 28.9393L31.5147 19.3934C30.9289 18.8076 29.9792 18.8076 29.3934 19.3934C28.8076 19.9792 28.8076 20.9289 29.3934 21.5147L37.8787 30L29.3934 38.4853C28.8076 39.0711 28.8076 40.0208 29.3934 40.6066C29.9792 41.1924 30.9289 41.1924 31.5147 40.6066L41.0607 31.0607ZM0 30L-1.31134e-07 31.5L40 31.5L40 30L40 28.5L1.31134e-07 28.5L0 30Z" fill="url(#paint1_linear_751_121)"/>
<defs>
<linearGradient id="paint0_linear_751_121" x1="-15.5" y1="31" x2="79.7604" y2="44.2396" gradientUnits="userSpaceOnUse">
<stop stop-color="white"/>
<stop offset="1" stop-color="#3B3B3B"/>
</linearGradient>
<linearGradient id="paint1_linear_751_121" x1="50.6383" y1="30" x2="-19.1489" y2="30" gradientUnits="userSpaceOnUse">
<stop stop-color="white"/>
<stop offset="1" stop-color="#3B3B3B"/>
</linearGradient>
</defs>
</svg>
